# xmcd CD database file
#
# Track frame offsets:
#	150
#	15672
#	32870
#	58142
#	76250
#	92930
#	106767
#	143975
#	165420
#
# Disc length: 2531 seconds
#
# Revision: 0
# Processed by: cddbd v1.5.1PL2 Copyright (c) Steve Scherf et al.
# Submitted via: CDex 1.51
#
DISCID=6c09e109
DTITLE=Michael Cassidy - A Change of Heart
DYEAR=2000
DGENRE=New Age
TTITLE0=World Beyond the Sky
TTITLE1=Questions Questions
TTITLE2=Bhagavad Gita
TTITLE3=Seers of the Truth
TTITLE4=Your Not that Body
TTITLE5=A Change of Heart
TTITLE6=Swetadwip
TTITLE7=Oh Govinda
TTITLE8=Time for Going Home
EXTD=YEAR: 2000
EXTT0=
EXTT1=
EXTT2=
EXTT3=
EXTT4=
EXTT5=
EXTT6=
EXTT7=
EXTT8=
PLAYORDER=
